<svg xmlns="http://www.w3.org/2000/svg" fill="none" viewBox="0 0 24 24" id="Inventory-Fill--Streamline-Outlined-Fill-Material" height="24" width="24"><desc>Inventory Fill Streamline Icon: https://streamlinehq.com</desc><path fill="#000000" d="m15.5 20.025 -4 -4 1.075 -1.075L15.5 17.875 21.475 11.9l1.075 1.075L15.5 20.025Zm5.5 -10.35h-1.5V4.5h-1.5v2.25H6V4.5H4.5v15h6.275v1.5H4.5c-0.433335 0 -0.791665 -0.14165 -1.075 -0.425S3 19.93335 3 19.5V4.5c0 -0.433335 0.141665 -0.791665 0.425 -1.075S4.066665 3 4.5 3h5.05c0.11665 -0.583335 0.40415 -1.0625 0.8625 -1.4375C10.87085 1.1875 11.4 1 12 1c0.6 0 1.12915 0.1875 1.5875 0.5625 0.45835 0.375 0.74585 0.854165 0.8625 1.4375H19.5c0.43335 0 0.79165 0.141665 1.075 0.425S21 4.066665 21 4.5v5.175ZM12 4.5c0.28335 0 0.52085 -0.095835 0.7125 -0.2875C12.90415 4.020835 13 3.783335 13 3.5s-0.09585 -0.520835 -0.2875 -0.7125C12.52085 2.595835 12.28335 2.5 12 2.5c-0.28335 0 -0.52085 0.095835 -0.7125 0.2875C11.09585 2.979165 11 3.216665 11 3.5s0.09585 0.520835 0.2875 0.7125c0.19165 0.191665 0.42915 0.2875 0.7125 0.2875Z" stroke-width="0.5"></path></svg>