<svg xmlns="http://www.w3.org/2000/svg" fill="none" viewBox="0 0 24 24" id="Partner-Exchange-Fill--Streamline-Outlined-Fill-Material" height="24" width="24"><desc>Partner Exchange Fill Streamline Icon: https://streamlinehq.com</desc><path fill="#000000" d="m12 8.2751 -3.15 -3.15 3.15 -3.15 3.15 3.15 -3.15 3.15Zm-11 11.725v-4c0 -0.48335 0.170835 -0.89585 0.5125 -1.2375s0.754165 -0.5125 1.2375 -0.5125h3.525c0.28335 0 0.55415 0.07085 0.8125 0.2125 0.25835 0.14165 0.47915 0.3375 0.6625 0.5875 0.48335 0.7 1.1 1.24165 1.85 1.625 0.75 0.38335 1.55 0.575 2.4 0.575 0.85 0 1.65 -0.19165 2.4 -0.575 0.75 -0.38335 1.375 -0.925 1.875 -1.625 0.18335 -0.25 0.4 -0.44585 0.65 -0.5875s0.51665 -0.2125 0.8 -0.2125h3.525c0.48335 0 0.89585 0.17085 1.2375 0.5125 0.34165 0.34165 0.5125 0.75415 0.5125 1.2375v4H16.5v-2.975c-0.6 0.55 -1.2875 0.975 -2.0625 1.275 -0.775 0.3 -1.5875 0.45 -2.4375 0.45 -0.85 0 -1.65835 -0.15 -2.425 -0.45 -0.76665 -0.3 -1.45835 -0.725 -2.075 -1.275v2.975H1Zm3 -7.5c-0.75 0 -1.395835 -0.27085 -1.9375 -0.8125 -0.541665 -0.54165 -0.8125 -1.1875 -0.8125 -1.9375 0 -0.76665 0.270835 -1.41665 0.8125 -1.95 0.541665 -0.53335 1.1875 -0.8 1.9375 -0.8 0.766665 0 1.41665 0.26665 1.95 0.8s0.8 1.18335 0.8 1.95c0 0.75 -0.26665 1.39585 -0.8 1.9375s-1.183335 0.8125 -1.95 0.8125Zm16 0c-0.75 0 -1.39585 -0.27085 -1.9375 -0.8125s-0.8125 -1.1875 -0.8125 -1.9375c0 -0.76665 0.27085 -1.41665 0.8125 -1.95s1.1875 -0.8 1.9375 -0.8c0.76665 0 1.41665 0.26665 1.95 0.8s0.8 1.18335 0.8 1.95c0 0.75 -0.26665 1.39585 -0.8 1.9375s-1.18335 0.8125 -1.95 0.8125Z" stroke-width="0.5"></path></svg>