<svg xmlns="http://www.w3.org/2000/svg" fill="none" viewBox="0 0 24 24" id="Skillet-Fill--Streamline-Outlined-Fill-Material" height="24" width="24"><desc>Skillet Fill Streamline Icon: https://streamlinehq.com</desc><path fill="#000000" d="M5 20c-0.85 0 -1.5625 -0.2875 -2.1375 -0.8625C2.2875 18.5625 2 17.85 2 17V12h14.5c0 -0.53335 0.13335 -1.02085 0.4 -1.4625 0.26665 -0.44165 0.64165 -0.74585 1.125 -0.9125l4.725 -1.6 0.475 1.425L18.5 11.025c-0.18335 0.06665 -0.3125 0.19585 -0.3875 0.3875 -0.075 0.19165 -0.1125 0.3875 -0.1125 0.5875v5c0 0.83335 -0.2875 1.54165 -0.8625 2.125C16.5625 19.70835 15.85 20 15 20H5ZM4.45 10c0.083335 -0.63335 0.058335 -1.17915 -0.075 -1.6375C4.241665 7.90415 3.95 7.35 3.5 6.7c-0.433335 -0.63335 -0.716665 -1.22085 -0.85 -1.7625C2.516665 4.395835 2.491665 3.75 2.575 3H4c-0.083335 0.616665 -0.054165 1.154165 0.0875 1.6125 0.141665 0.45835 0.445835 1.0125 0.9125 1.6625 0.43335 0.61665 0.7125 1.20415 0.8375 1.7625 0.125 0.55835 0.1375 1.2125 0.0375 1.9625H4.45Zm4.25 0c0.08335 -0.63335 0.05835 -1.17915 -0.075 -1.6375 -0.13335 -0.45835 -0.425 -1.0125 -0.875 -1.6625 -0.43335 -0.63335 -0.71665 -1.22085 -0.85 -1.7625 -0.13335 -0.541665 -0.15835 -1.1875 -0.075 -1.9375h1.425c-0.08335 0.616665 -0.05835 1.154165 0.075 1.6125 0.13335 0.45835 0.43335 1.0125 0.9 1.6625 0.43335 0.61665 0.71665 1.20415 0.85 1.7625 0.13335 0.55835 0.15 1.2125 0.05 1.9625H8.7Zm4.25 0c0.08335 -0.63335 0.05835 -1.17915 -0.075 -1.6375 -0.13335 -0.45835 -0.425 -1.0125 -0.875 -1.6625 -0.43335 -0.63335 -0.71665 -1.22085 -0.85 -1.7625 -0.13335 -0.541665 -0.15835 -1.1875 -0.075 -1.9375H12.5c-0.08335 0.616665 -0.05835 1.154165 0.075 1.6125 0.13335 0.45835 0.43335 1.0125 0.9 1.6625 0.43335 0.61665 0.71665 1.20415 0.85 1.7625 0.13335 0.55835 0.15 1.2125 0.05 1.9625H12.95Z" stroke-width="0.5"></path></svg>